<?xml version="1.0" encoding="utf-8"?>
<!-- Generator: Adobe Illustrator 23.1.1, SVG Export Plug-In . SVG Version: 6.00 Build 0)  -->
<svg version="1.1" id="Layer_1" xmlns="http://www.w3.org/2000/svg" xmlns:xlink="http://www.w3.org/1999/xlink" x="0px" y="0px"
	 viewBox="0 0 760 685" style="enable-background:new 0 0 760 685;" xml:space="preserve">
<style type="text/css">
	.st0{fill:url(#SVGID_1_);}
	.st1{fill:url(#SVGID_2_);}
	.st2{fill:#AE392B;}
	.st3{fill:#FA392B;}
	.st4{fill:none;}
	.st5{fill:#FFFF00;}
	.st6{font-family:'Noteworthy-Bold';}
	.st7{font-size:36px;}
	.st8{font-size:27px;}
</style>
<g>
	<linearGradient id="SVGID_1_" gradientUnits="userSpaceOnUse" x1="176.7872" y1="521.8439" x2="659.3995" y2="98.1063">
		<stop  offset="0" style="stop-color:#B5651D"/>
		<stop  offset="0.1149" style="stop-color:#9E5B1E"/>
		<stop  offset="0.2963" style="stop-color:#7F4E20"/>
		<stop  offset="0.4505" style="stop-color:#6C4621"/>
		<stop  offset="0.5578" style="stop-color:#654321"/>
	</linearGradient>
	<rect x="88.4" y="56.8" class="st0" width="603.5" height="555.5"/>
	
		<linearGradient id="SVGID_2_" gradientUnits="userSpaceOnUse" x1="186.2892" y1="172.5039" x2="647.4016" y2="577.3644" gradientTransform="matrix(1 0 0 -1 0 686)">
		<stop  offset="0" style="stop-color:#B5651D"/>
		<stop  offset="0.1149" style="stop-color:#9E5B1E"/>
		<stop  offset="0.2963" style="stop-color:#7F4E20"/>
		<stop  offset="0.4505" style="stop-color:#6C4621"/>
		<stop  offset="0.5578" style="stop-color:#654321"/>
	</linearGradient>
	<path class="st1" d="M132.8,612.3c-24.5,0-44.4-19.9-44.4-44.4V101.1c0-24.5,19.9-44.4,44.4-44.4h514.8c24.5,0,44.4,19.9,44.4,44.4
		v466.8c0,24.5-19.9,44.4-44.4,44.4L132.8,612.3L132.8,612.3z"/>
</g>
<g>
	<path class="st2" d="M168.8,426.6c-24.4,0-44.3-19.9-44.3-44.3V170.9c0-24.4,19.9-44.3,44.3-44.3h440.3c24.5,0,44.3,19.9,44.3,44.3
		v211.4c0,24.5-19.9,44.3-44.3,44.3L168.8,426.6L168.8,426.6z"/>
	<path d="M609.1,127c24.2,0,43.8,19.7,43.8,43.8v211.4c0,24.2-19.7,43.8-43.8,43.8H168.8c-24.2,0-43.8-19.7-43.8-43.8V170.9
		c0-24.2,19.7-43.8,43.8-43.8L609.1,127 M609.1,126H168.8c-24.8,0-44.8,20.1-44.8,44.8v211.4c0,24.8,20.1,44.8,44.8,44.8h440.3
		c24.8,0,44.8-20.1,44.8-44.8V170.9C653.9,146.1,633.8,126,609.1,126L609.1,126z"/>
</g>
<image style="overflow:visible;enable-background:new    ;" width="1656" height="1553" xlink:href="1487DB0624BF0193.png"  transform="matrix(0.1851 0 0 0.1851 249.3222 139.8531)">
</image>
<g>
	<polygon class="st3" points="337.5,501.6 335.9,507.6 335.1,505.7 333,501 331.7,507 330.6,503.5 328.5,504.3 327.5,505.8 
		325.9,501.9 324.4,507 323.5,505.7 321.5,501.9 320.2,507.2 319.1,502.3 316.9,503.8 315.9,506.9 314.6,503.1 313,505.7 
		311.4,503.2 310.1,507.6 308.9,504.8 307.1,506 306,506.1 304.3,503.8 303,506 301.4,502.6 300,506.9 298.7,502.5 296.9,506.4 
		295.7,506.2 294.5,506.7 293.2,504.9 291.7,503.7 290,502.9 288.4,503.7 287.1,503.6 285.4,503.9 284.1,505 282.7,504.1 280.9,506 
		279.8,508.2 278.9,506.9 277,502.1 275.2,506.9 273.9,506.8 272.9,507.8 271.6,504.2 269.7,502.5 267.9,505.4 266.5,508.2 
		265.5,508.5 264.3,507.6 262.5,506.1 261,507.7 259.6,507 258.4,508.2 257.2,506.3 255.4,502 253.5,506.6 252.4,508.2 251.1,506.8 
		249.5,507.7 248.5,507.6 247.1,505.4 245.5,503.4 243.9,503.6 242.2,502.6 240.6,505 239.1,505.1 238.1,507.6 236.9,504.3 
		235.4,505 233.8,502.3 232,504.7 230.9,504.8 229.7,504.5 227.9,501.8 226.1,504.8 225,507.2 223.6,504.8 222.2,507.5 221.2,505.1 
		219.3,501.5 217.5,505.1 216.1,505.8 215.1,507.1 213.5,502.1 212,507 210.6,502.7 209,507.5 208.1,506.2 206.1,502.8 204.9,507.2 
		203.8,503.3 201.7,501.9 200.4,504.5 198.9,502 197.5,507 196.6,504.8 194.5,503.1 193.3,505.8 191.8,501.6 190.1,507.1 
		189.4,506.4 187.8,502 185.8,502.9 184.5,504 182.9,503.8 181.8,506.5 180.7,503.3 178.6,502.8 177,505.3 176.1,506.6 174.6,501.8 
		172.6,506.5 171.5,508.2 170.5,507.4 169.1,505.9 167.6,504.8 165.6,502.3 164.2,506.9 162.8,504.6 161.6,507.9 160.5,503.8 
		158.5,502 157,504 155.9,503.1 154.1,502.3 152.6,503.5 150.9,503.8 149.9,506.8 148.4,501.4 146.8,507.8 145.9,506.6 144.6,501 
		142.3,505.9 141.5,504.4 139.7,505.3 139,503.3 137.1,503.8 136.3,503.1 136.6,499.2 133.2,501.1 131.1,502.2 131.9,499.3 
		130.2,499 130.9,496.6 129.4,495.4 127.2,495.7 129.1,492.8 125.8,493.2 129.6,489.9 124.5,490.2 124.4,488.9 123,488.2 
		127.9,485.7 124.7,484.6 126.3,483.1 121.3,481.9 123.9,481 126.5,479.1 124.5,477 121.2,475.8 122.6,474.9 127.5,473.8 
		125.4,471.6 123.7,469.8 122.9,468.5 125.3,468 125.7,466 124.5,464.3 128.3,464.9 127.7,462.8 130.9,463.6 131,461.6 132.1,460.6 
		131.1,458.2 134,460 135.4,458.7 135.4,456.3 136,455.4 138.4,456.5 138.4,453.1 139.9,454.4 141.6,454.7 142.9,454.1 144.6,454.4 
		145.6,452.1 147,454.1 148.4,451.3 150,453.8 151.4,449.7 152.4,451.3 153.9,451.3 155.8,453.6 157.1,450.2 158.5,453.6 
		160.2,449.5 161,450 162.4,453.1 164.5,454.2 165.7,451.7 166.9,454 168.4,453.2 169.9,456.2 171.9,454.3 172.8,452 174.3,456.9 
		176.1,452.3 177.5,452.4 178.4,451 179.8,455.9 181.6,455.3 183.4,455.4 184.6,451 185.9,454.1 187.6,450.2 188.4,450.3 
		190.3,454.1 191.9,449.8 192.7,450.3 194.2,454.6 196.3,454 197.3,451.8 198.8,456.9 200.7,452.2 201.7,450.8 203,452.9 
		204.9,451.8 205.9,450.7 207.2,453.3 209.1,453.4 210.2,452.4 211.9,456.7 213.6,450 214.6,450.6 216.1,450.2 217.2,450.5 
		218.8,453.6 220.3,452.9 221.9,454.9 223.6,452.9 225.1,452.1 226.1,450.4 227.4,454.9 229.5,452.8 230.7,451.5 231.8,451.7 
		233.4,452.7 235,451.9 236.4,452.1 237.8,451.2 239.3,452.3 240.6,450.2 242.1,453.1 243.6,449.9 244.8,452.2 246.8,450.8 
		247.6,449.6 249.1,454.5 250.6,452.7 252.3,456.6 253.6,452 254.8,455.9 256.9,454.9 258,450.4 259,453.3 261,455.8 262.3,452.2 
		263.7,455.6 265.1,452.5 266.4,455.8 268,454.4 269.3,455.8 271.3,455.9 272.6,452.1 273.5,453.1 275.4,455.7 276.7,452.3 
		278.2,456.6 280,450.8 281.1,449.8 282.2,450.5 283.6,451.1 285.1,454.4 286.7,453.9 288.3,456.1 289.7,453.7 291.4,456.3 
		292.8,450.8 293.8,452.5 295.2,452.7 296.6,454.7 298.6,455.4 299.8,453 301,455.4 303.1,454.8 304.6,451.6 305.4,450.4 
		307.1,457.2 308.9,449.2 309.8,449.3 311.2,449.8 312.5,450.3 313.9,451.7 315.6,455.1 317.6,452.4 319,451 319.8,450.3 321.4,456 
		323,452.9 324.3,454.9 326.2,453.6 327.5,451.6 328.5,452.3 329.9,452.7 331.3,454.5 333.4,455.5 334.6,451.3 335.8,455.5 
		337.4,453.3 338.8,455.5 340.8,453.7 341.8,450.5 343,455.3 344.7,452.7 346.2,454.6 347.5,452.2 349,456.5 350.6,452.5 
		351.4,453.9 352.7,454.5 354,457 357,451.6 357.8,453 359.5,452.1 358.9,456.6 361.3,456.3 363.1,455.7 363.6,457.5 365.6,457.3 
		366,459.1 368.2,459.2 368.7,460.1 367.5,462.9 368.9,464.3 371.7,464.2 371,465.8 371.2,467.2 367.5,470.3 374.8,470 374.4,470.9 
		368.1,473.5 371.7,475 375.1,476.1 374,477 369.5,478.6 369.2,480.9 372.8,482.1 370,483.3 372.4,485 370.9,486.2 373.3,487.9 
		367.7,487.9 372.9,491.5 372.4,492.3 370.4,492.9 367.3,493.2 369.9,496.9 370,498.7 369.4,499.6 365.2,498.1 365.9,501.5 
		365.1,501.9 360.3,498.5 362.1,503.7 359.2,500.9 358.4,502.9 356.8,502.7 356,504 354.5,502.8 352.6,502.6 351.6,504.6 
		350.2,503.8 348.6,507 347.7,507.7 346.2,505.1 344.4,507.2 343,508.1 341.8,508.6 340.3,508.5 339.3,508.8 	"/>
	<path d="M309.3,449.8l0.4,0.1l1.3,0.5l1.2,0.5l1.2,1.2l1.4,2.7l0.8,1.5l1-1.3l1.4-2l1.4-1.4l0.2-0.2l1,3.7l0.7,2.4l1.2-2.2l0.6-1.2
		l0.5,0.8l0.5,0.9l0.9-0.6l1.5-1l0.2-0.1l0.1-0.2l0.9-1.5l0.6,0.4l0.1,0.1l0.1,0l1.1,0.3l1.2,1.6l0.1,0.2l0.2,0.1l1.5,0.7l1.1,0.5
		l0.3-1.1l0.5-2l0.4,1.5l0.6,1.9l1.2-1.6l0.6-0.8l0.7,1.1l0.6,1l0.9-0.8l1.5-1.3l0.2-0.2l0.1-0.3l0.4-1.4l0.5,2.1l0.6,2.2l1.2-1.9
		l0.7-1.1l0.6,0.7l1,1.2l0.7-1.4l0.4-0.7l0.7,2l0.9,2.5l1-2.4l0.7-1.8l0.2,0.4l0.2,0.3l0.3,0.1l1,0.5l0.8,1.5l0.9,1.6l0.9-1.6
		l2.1-3.8l0.2,0.3l0.5,0.8l0.8-0.4l0.5-0.2l-0.4,2.9l-0.2,1.3l1.3-0.2l1.7-0.2l0.1,0l0.1,0l1.2-0.4l0.2,0.8l0.2,0.8l0.8-0.1l1.2-0.1
		l0.2,1l0.1,0.8l0.8,0l1.6,0.1l0.3,0.5l-1,2.2l-0.3,0.6l0.5,0.5l1,1l0.3,0.3l0.5,0l1.7-0.1l-0.3,0.7l-0.1,0.3l0,0.3l0.1,1l-2.4,2
		l-2.2,1.9l2.9-0.1l5-0.3l-5,2.1l-2.2,0.9l2.2,0.9l2.5,1.1l0,0l0,0l2.5,0.8l-0.3,0.3l-4.2,1.5l-0.6,0.2l-0.1,0.6l-0.2,1.5l-0.1,0.8
		l0.8,0.3l2,0.7l-0.7,0.3l-1.6,0.7l1.4,1l1.2,0.8l-0.5,0.4l-1,0.8l1.1,0.8l0.5,0.4l-2.4,0l-3.2,0l2.7,1.9l3.5,2.4l-0.1,0.2l-1.7,0.5
		l-2.3,0.3l-1.6,0.2l0.9,1.4l2,2.9l0.1,1.5l-0.3,0.4l-3-1.1l-1.7-0.6l0.4,1.8l0.5,2.1l-0.2,0.1l-3.3-2.3l-2.5-1.8l1,2.9l0.6,1.7
		l-0.9-0.9l-1.1-1l-0.6,1.4l-0.4,1l-0.8-0.1l-0.6-0.1l-0.4,0.5l-0.4,0.6l-1-0.8l-0.2-0.2l-0.3,0l-1.4-0.2l-0.7-0.1l-0.3,0.6
		l-0.6,1.2l-0.5-0.3l-0.9-0.5l-0.5,0.9l-1.3,2.6l-0.4,0.3l-0.9-1.5l-0.7-1.2l-0.9,1l-1.4,1.5l-1.2,0.9l-1.1,0.4l-1.2,0h-0.1l-0.1,0
		l-0.5,0.1l-1.2-4.8l-0.9-3.8l-1,3.8l-0.7,2.8l-0.3-0.6l-1.4-3.3l-1.2-2.8l-0.7,3l-0.6,2.7l-0.4-1.2l-0.3-1l-1,0.4l-1.4,0.5
		l-0.3,0.1l-0.2,0.3l-0.4,0.6l-0.7-1.7l-1.1-2.6l-0.8,2.7l-0.8,2.7l-0.2-0.4l-1.4-2.7l-1.2-2.3l-0.6,2.6l-0.5,2l-0.5-2.1l-0.3-1.4
		l-1.2,0.8l-1.4,1l-0.3,0.2l-0.1,0.3l-0.5,1.5l-0.5-1.4l-0.7-2l-1.1,1.9l-0.6,1l-0.6-0.9l-1.2-1.8l-0.6,2.1l-0.6,2l-0.4-1l-0.5-1.1
		l-1,0.7l-1.2,0.8l-0.6,0.1l-1.1-1.5l-0.9-1.2l-0.8,1.3l-0.5,0.8l-0.6-1.4l-1.1-2.4l-0.8,2.5l-0.5,1.5l-0.5-1.6l-0.8-2.5l-1.1,2.4
		l-1.1,2.4l-0.7-0.1l-0.3-0.1l-0.3,0.1l-0.7,0.3l-1-1.4l-0.1-0.1l-0.1-0.1l-1.4-1.2l-0.1-0.1l-0.1,0l-1.4-0.7l-0.5-0.2l-0.5,0.3
		l-1.2,0.7l-1.1-0.1l-0.1,0l-0.1,0l-1.4,0.2l-0.3,0l-0.2,0.2l-0.9,0.8l-0.8-0.5l-0.7-0.4l-0.6,0.6l-1.4,1.5l-0.1,0.1l-0.1,0.1
		l-0.7,1.4l-0.4-0.6l-1.4-3.5l-1-2.4l-0.9,2.4l-1.2,3.2l-0.7,0l-0.4,0l-0.3,0.3l-0.3,0.3l-0.9-2.7l-0.1-0.2l-0.2-0.2l-1.4-1.2
		l-0.9-0.8l-0.6,1l-1.4,2.4l0,0l0,0l-1.2,2.5l-0.6,0.2l-1-0.7l-1.4-1.2l-0.7-0.6l-0.6,0.7l-0.9,1l-0.8-0.4l-0.7-0.4l-0.5,0.5
		l-0.5,0.5l-0.8-1.3l-1.4-3.2l-1-2.2l-0.9,2.2l-1.4,3.5l-0.7,1l-0.6-0.6l-0.5-0.6l-0.7,0.4l-1.1,0.6l-0.6-0.1l-1.2-2l0-0.1l-0.1-0.1
		l-1.4-1.7l-0.4-0.4l-0.5,0.1l-1.1,0.1l-1.1-0.7l-0.8-0.5l-0.5,0.8l-1.2,1.7l-1,0.1l-0.6,0l-0.2,0.5l-0.4,1l-0.6-1.6l-0.4-1l-1,0.5
		l-0.6,0.3l-1-1.6l-0.8-1.3l-0.9,1.2l-1.2,1.6l-0.8,0.1l-0.9-0.2l-1.2-1.9l-0.9-1.3l-0.8,1.3l-1.4,2.3l0,0.1l0,0.1l-0.6,1.5
		l-0.5-0.8l-0.9-1.6l-0.8,1.7l-0.5,1l-0.6-1.5l0,0l0,0l-1.4-2.6l-0.9-1.7l-0.9,1.7l-1.3,2.5l-1.1,0.6l-0.2,0.1l-0.1,0.2l-0.3,0.4
		l-0.8-2.5l-1-3l-0.9,3.1l-0.6,1.8l-0.4-1.4l-0.9-2.9l-1,2.9l-0.8,2.4l-0.3-0.4l-1.4-2.4l-1.2-2l-0.6,2.2l-0.4,1.6l-0.5-2l-0.1-0.4
		l-0.3-0.2l-1.4-1l-1-0.7l-0.5,1l-0.6,1.3l-0.5-0.8l-1.2-2l-0.6,2.2l-0.7,2.5l-0.3-0.7l-0.1-0.2l-0.2-0.1l-1.4-1.2l-1-0.8l-0.5,1.2
		l-0.4,1l-0.6-1.6l-1-2.8l-0.9,2.9l-1,3.3l-0.1-0.1l-1.4-3.8l-0.4-1l-1,0.5l-1.4,0.7l-0.1,0.1l-0.1,0.1l-1.1,1l-1-0.2l-0.8-0.1
		l-0.3,0.8l-0.4,1.1l-0.6-1.7l-0.2-0.5l-0.5-0.1l-1.4-0.4l-0.7-0.2l-0.4,0.6l-1.4,2.2l-0.3,0.4l-0.8-2.5l-0.8-2.6l-1.1,2.5l-1.4,3.4
		l-0.8,1.3l-0.5-0.4l-1.4-1.5l-0.1,0l-0.1,0l-1.4-1.1l-1.4-1.7l-1.2-1.5l-0.6,1.8l-0.8,2.6l-0.3-0.5l-1.1-1.7l-0.7,1.9l-0.3,0.9
		l-0.6-2.4l-0.1-0.3l-0.2-0.2l-1.4-1.3l-0.8-0.8l-0.7,0.9l-0.8,1.1l-0.6-0.5l-0.1-0.1l-0.1-0.1l-1.4-0.6l-0.5-0.2l-0.5,0.4l-1.2,1
		l-1.2,0.2l-0.6,0.1l-0.2,0.6l-0.4,1.2l-0.6-2.1l-1-3.6l-0.9,3.6l-0.9,3.5l-0.1-0.2l-0.9-4.1l-0.7-2.8l-1.2,2.6l-1.3,2.7l-0.1-0.2
		l-0.5-0.8l-0.9,0.5l-0.8,0.4l-0.4-1.1l-0.3-0.8l-0.9,0.2l-1.2,0.3l-0.4-0.3l0.2-2.7l0.1-1.9l-1.6,0.9l-2.6,1.4l-1.1,0.6l0.4-1.3
		l0.3-1.1l-1.1-0.2l-0.6-0.1l0.4-1.5l0.2-0.6l-0.5-0.4l-1.1-0.9l-0.4-0.3l-0.4,0.1l-0.9,0.1l0.7-1.1l1.2-1.8l-2.2,0.3l-0.6,0.1
		l1.4-1.3l2.1-1.9l-2.9,0.2l-3.1,0.2l0-0.5l0-0.6l-0.5-0.2l-0.3-0.1l2.9-1.5l2.2-1.1l-2.3-0.7l-1.3-0.4l0.4-0.4l1.3-1.3l-1.8-0.4
		l-2.4-0.6l1-0.4l0.1,0l0.1-0.1l2-1.5l0.9-0.7l-0.8-0.8l-1.5-1.5l-0.2-0.2l-0.2-0.1l-2.2-0.8l0.5-0.3l4-1l1.7-0.4l-1.2-1.3l-1.5-1.5
		l-1.6-1.7l-0.4-0.7l1.4-0.3l0.6-0.1l0.1-0.6l0.3-1.4l0.1-0.4l-0.2-0.4l-0.4-0.6l1.9,0.3l1.6,0.2l-0.4-1.5l-0.1-0.4l1.8,0.4l1.2,0.3
		l0.1-1.2l0.1-1.2l0.7-0.7l0.5-0.5l-0.2-0.6l-0.3-0.7l1.3,0.8l0.6,0.4l0.6-0.5l1-0.8l0.4-0.3l0-0.5l0-2.1l0.2-0.4l1.2,0.6l1.4,0.7
		l0-1.6l0-1.6l0.6,0.5l0.2,0.2l0.2,0l1.5,0.3l0.3,0.1l0.3-0.1l1-0.5l1.1,0.2l0.8,0.1l0.3-0.7l0.5-1.1l0.5,0.6l1,1.3l0.7-1.5l0.6-1.3
		l0.5,0.8l1.1,1.8l0.7-2l0.8-2.2l0.3,0.5l0.3,0.5h0.6l1,0l1.1,1.4l1.1,1.3l0.6-1.6l0.5-1.4l0.5,1.2l0.9,2.3l0.9-2.3l1-2.4l0.2,0.1
		l1.3,2.8l0.1,0.3l0.3,0.1l1.4,0.7l0.9,0.5l0.4-0.9l0.6-1.1l0.5,1l0.5,0.9l0.9-0.5l0.5-0.3l1,1.9l0.6,1.2l1-0.9l1.4-1.4l0.1-0.1
		l0.1-0.2l0.4-0.9l0.6,2.2l0.8,2.8l1.1-2.7l1.2-2.9l0.8,0l0.5,0l0.3-0.4l0.2-0.3l0.9,3.4l0.3,1l1-0.3l1.3-0.4l1.3,0l0.8,0l0.2-0.8
		l0.7-2.6l0.3,0.7l0.9,2.1l0.9-2.1l1.1-2.6l0.2,0l1.2,2.5l1,2.1l0.8-2.2l1-2.6l0.1,0.1l1.3,3.7l0.3,0.9l0.9-0.3l1.4-0.4l0.4-0.1
		l0.2-0.4l0.3-0.7l0.7,2.4l0.8,2.7l1.1-2.6l1.4-3.3l0.5-0.7l0.6,1l0.5,0.8l0.8-0.5l1.4-0.8l0.1-0.1l0.1-0.1l0.4-0.5l0.8,1.7l0.3,0.6
		l0.6,0l1.4,0l0.4,0l0.3-0.3l0.4-0.3l0.9,2.2l1.2,2.9l0.7-3l1.1-4.6l0.3,0.2l0.4,0.2l0.4-0.1l1.2-0.3l0.8,0.2l1.2,2.5l0.4,0.9
		l0.9-0.4l0.7-0.3l0.9,1.3l0.7,1l0.8-0.9l1.3-1.5l1.3-0.7l0.2-0.1l0.1-0.2l0.3-0.5l0.8,2.5l0.5,1.6l1.2-1.2l1.4-1.5l1.1-1.1l0.7,0.2
		l1.3,0.8l0.5,0.3l0.5-0.3l1.1-0.6l1.1,0.2l0.4,0.1l0.3-0.2l0.9-0.6l0.9,0.6l0.9,0.6l0.6-0.9l0.5-0.9l0.6,1.2l0.9,1.8l0.9-1.9
		l0.6-1.3l0.5,0.9l0.5,1l0.9-0.6l1.4-1l0.1-0.1l0.1-0.1l0.2-0.3l0.9,3l0.5,1.8l1.2-1.4l0.4-0.5l0.8,1.9l1.1,2.5l0.8-2.6l0.5-1.6
		l0.5,1.7l0.3,1.1l1-0.5l1.4-0.6l0.5-0.2l0.1-0.5l0.6-2.6l0.4,1.1l0.1,0.2l0.1,0.1l1.4,1.8l1.1,1.4l0.6-1.6l0.6-1.5l0.5,1.1l0.9,2.1
		l1-2l0.5-1l0.6,1.5l0.5,1.3l1.1-0.9l0.7-0.6l0.8,0.9l0.3,0.3l0.4,0l1.4,0.1l0.8,0l0.2-0.7l0.9-2.6l0.3,0.3l1.4,1.9l1.1,1.4l0.6-1.7
		l0.5-1.2l0.5,1.6l1,2.8l0.9-2.9l1.4-4.2l0.7-0.6l0.8,0.5l0,0l0,0l1.1,0.5l1.3,2.7l0.4,0.8l0.8-0.3l0.8-0.3l1,1.3l0.9,1.2l0.8-1.3
		l0.6-1l0.6,0.9l1.2,2l0.6-2.3l0.8-3.2l0.2,0.4l0.2,0.4l0.5,0.1l1,0.1l1.2,1.7l0.2,0.3l0.3,0.1l1.5,0.5l0.8,0.3l0.4-0.8l0.5-1
		l0.6,1.1l0.4,0.7l0.8-0.2l1.4-0.4l0.4-0.1l0.2-0.4l1.4-3l0.1-0.2l0.9,3.6l1,4.1l0.9-4.1L309.3,449.8 M247.9,448.5l-1.4,1.9l-1.4,1
		l-1.4-2.7l-1.4,3.2l-1.4-2.8l-1.4,2.4l-1.4-1l-1.4,1l-1.4-0.2l-1.4,0.8l-1.4-0.9l-1.4-0.3l-1.4,1.5l-1.4,1.5l-1.4-4.7l-1.4,2.5
		l-1.4,0.8l-1.4,1.6l-1.4-1.9L219,453l-1.4-2.9l-1.4-0.4l-1.4,0.4l-1.4-0.9l-1.4,5.9l-1.4-3.5l-1.4,1.3l-1.4,0l-1.4-3l-1.4,1.5
		l-1.4,0.8l-1.4-2.2l-1.4,2l-1.4,3.4l-1.4-5.1l-1.4,3.2l-1.4,0.4l-1.4-4l-1.4-1l-1.4,3.8l-1.4-3l-1.4-0.2l-1.4,3.2l-1.4-3.4
		l-1.4,5.4l-1.4,0l-1.4,0.5l-1.4-5.5l-1.4,2l-1.4,0l-1.4,3.6l-1.4-4.9l-1.4,3.5l-1.4,1.4l-1.4-2.9l-1.4,0.8l-1.4-2.7l-1.4,2.9
		l-1.4-0.7l-1.4-3l-1.4-0.9l-1.4,3.5l-1.4-3.5l-1.4,3.8l-1.4-1.8l-1.4,0l-1.4-2.3l-1.4,4.1l-1.4-2.4l-1.4,2.9l-1.5-2.1l-1.2,2.7
		l-1.4-0.2l-1.3,0.6l-1.5-0.3l-2.2-1.8l0,3.7l-2-1l-0.9,1.3l0,2.4l-1,0.8l-3.8-2.4l1.4,3.5l-0.9,0.9l-0.1,1.6l-3.5-0.9l0.6,2.1
		l-4.2-0.6l1.8,2.6l-0.3,1.4l-2.8,0.6l1.3,1.9l1.7,1.8l1.5,1.5l-4.1,1l-2.3,1.5l4.1,1.5l1.5,1.5l-2,1.5l-4.1,1.5l5.7,1.3l-1.6,1.5
		l2.9,0.9l-4.8,2.5l2.1,1l0.1,1.5l4.1-0.2l-3.8,3.4l3.8-0.5l-1.9,3l3.1-0.5l1.1,0.9l-0.8,2.6l1.8,0.3l-0.9,3.5l3.1-1.6l2.6-1.5
		l-0.2,3.2l1.1,1l1.7-0.4l0.8,2.1l1.8-1l1.1,1.9l2.1-4.4l1,4.3l1.5,2.2l1.5-5.7l1.5,5.2l1.4-4.3l1.4-0.2l1.4-1.1l1.4,0.6l1.4,1.3
		l1.4-2l1.4,1.3l1.4,5.4l1.4-3.7l1.4,2.3l1.4-4.7l1.4,1.8l1.4,1.2l1.4,1.5l1.4,1.2l1.4-2.3l1.4-3.4l1.4,4.5l1.4-2.1l1.4-2.3l1.4,0.4
		l1.4,4.3l1.4-3.7l1.4,0.2l1.4-1.3l1.4-0.7l1.4,4.1l1.4,1.2l1.4-4.7l1.4,4l1.4-3.2l1.4,1.2l1.4,3.3l1.4-5.3l1.4,2.4l1.4-3l1.4,1
		l1.4,5.5l1.4-5.1l1.4,2.4l1.4,2.1l1.4-4.3l1.4,4.4l1.4-4.9l1.4,4.4l1.4-2l1.4-0.7l1.4-2.8l1.4,2.6l1.4,3.5l1.4-3l1.4,2.5l1.4-3.2
		l1.4-2.3l1.4,2.2l1.4,0.4l1.4-0.1l1.4-2l1.4,2.4l1.4-0.6l1.4,4l1.4-3.4l1.4-0.1l1.4-2.1l1.4,0.9l1.4-0.2l1.4,1.7l1.4,2.4l1.4,0.2
		l1.4-0.8l1.4,1.6l1.4-2.2l1.4-3.6l1.4,3.3l1.4,2.5l1.4-1.5l1.4,0.8l1.4-1.5l1.4,1.2l1.4,1l1.4-0.4l1.4-2.9l1.4-2.4l1.4,1.2l1.4,4.2
		l1.4-1.3l1.4,0.1l1.4-3.9l1.4,3.6l1.4,2l1.4-2.9l1.4-1.5l1.4,0.9l1.4-1.3l1.4-0.2l1.4,0.1l1.4-0.8l1.4,0.7l1.4,1.2l1.4,2l1.4-0.6
		l1.4,0.3l1.4-3.1l1.4,4.7l1.4-4.6l1.4,3.1l1.4-2.4l1.4,2l1.4-0.2l1.4-1l1.4,3.6l1.4-4.7l1.4,2.3l1.4-2.4l1.4,4.2l1.4-4.4l1.4-1
		l1.4,6.3l1.4-6.2l1.4,2.7l1.4,2.3l1.4-4.8l1.4,3.5l1.4-2.1l1.4-0.5l1.4,4.9l1.4-6.5l1.4,3.3l1.4,3.1l1.4-5.5l1.4,5.8l1.4-0.4l1.4,0
		l1.4-0.5l1.4-1l1.4-1.6l1.4,2.5l1.4-1.2l1.4-2.8l1.5,0.8l1-2.2l1.4,0.2l1.8,1.5l1-1.5l1.6,0.2l0.7-1.7l3.9,3.8l-1.9-5.7l3.8,2.7
		l1.4-0.7l-0.6-2.9l3.7,1.4l0.9-1.4l-0.1-2.1l-2.1-3.1l2.4-0.3l2.1-0.6l0.9-1.3l-4.3-3l5.6,0l-3.1-2.2l1.5-1.2l-2.2-1.6l3.1-1.3
		l-4.4-1.5l0.2-1.5l4.3-1.5l2-1.5l-4.3-1.4l-2.5-1.1l5.4-2.2l0.8-1.8l-6.7,0.4l2.8-2.4l-0.2-1.5l1-2.2l-3.3,0.1l-1-1l1.2-2.7
		l-0.8-1.4l-2.1-0.1l-0.3-1.9l-2.1,0.2l-0.5-1.9l-2.2,0.7l-1.7,0.2l0.7-4.8l-2.2,1.1l-1.1-1.7l-2.9,5.2l-0.9-1.8l-1.3-0.6l-1.2-2.1
		l-1.5,3.6l-1.5-4.1l-1.5,2.7l-1.5-1.9l-1.5,2.3l-1.5-5.4l-1.5,4.7l-1.5,1.3l-1.5-2.3l-1.5,2l-1.5-4.9l-1.5,5.4l-1.5-0.7l-1.5-1.9
		l-1.5-0.4l-1.5-0.9l-1.5,2.4l-1.5,1l-1.5-2.3l-1.5,2.7l-1.5-5.3l-1.5,1.3l-1.5,1.5l-1.5,2l-1.5-2.8l-1.4-1.5l-1.4-0.5l-1.4-0.5
		l-1.4-0.2l-1.5,6.4l-1.5-5.8l-1.5,2.1l-1.4,3l-1.4,0.4l-1.4-2.9l-1.4,2.8l-1.5-0.5l-1.4-2l-1.4-0.2l-1.5-2.5l-1.5,5.6l-1.5-2.3
		l-1.5,2.4l-1.4-1.9l-1.4,0.5l-1.4-3l-1.4-0.7l-1.5-0.9l-1.5,1.3l-1.5,4.5l-1.4-4.2l-1.4,3.9l-1.4-1.9l-1.4-1.6l-1.4,4.2l-1.4-0.1
		l-1.4-1.7l-1.5,1.3l-1.5-3.6l-1.4,3.1l-1.4-3.5l-1.4,3.9l-1.4-1.8l-1.4-4.5l-1.4,6l-1.4,0.6l-1.4-4.9l-1.4,4.8l-1.4-3.3l-1.4,1.7
		L247.9,448.5L247.9,448.5z"/>
</g>
<g>
	<polygon class="st3" points="385.4,585.9 384.1,586.9 382.6,583.5 381.2,585.5 379.8,581.8 377.7,583.8 376.7,586.8 375.6,584.7 
		374.1,584.5 372.7,582.6 370.7,582.1 369.1,586 368.3,587 366.7,583.3 365,587.2 364.2,586.7 362.4,583.3 360.9,585.9 359.9,583.8 
		357.9,580.4 356.5,585.2 355.6,582.9 353.5,581.3 352.3,584.2 351.2,581.1 349.4,581.6 347.9,581.5 346.2,582.3 345,584.8 
		343.9,583.4 342,583.5 340.9,585 339.4,581.9 338,584.5 336.4,581 334.9,585.6 333.7,583.2 332,585.4 331,584.7 329,583.9 
		328,586.2 326.6,581 324.5,583.4 323.5,585.2 322.4,583.4 320.4,583.2 319.2,585.1 317.9,582.9 316.5,583.9 314.7,579.9 
		313.1,587.4 312.4,586.9 310.7,583.8 309.3,585.2 307.8,581.5 305.8,584.5 305,586.2 303.6,580.5 301.5,583.8 300.5,585.5 
		299.3,582.7 297.5,583.3 296.2,583.6 294.8,583.3 293,582.9 291.5,586.1 290.6,586 289.3,584.6 287.6,583.1 285.7,584.1 
		284.4,587.1 283.5,586.9 282.1,583.7 280.1,583.3 278.7,585.2 277.7,584.5 275.7,583.2 274.5,586.8 273.5,584.3 271.7,580.6 
		269.8,583.3 268.6,585.3 267.2,584.1 264.6,587.3 263.3,583 261.3,583.2 260.2,584.4 259.5,581.9 258,581.3 256.6,580.4 
		254.6,583.1 255.1,578.6 251.2,582.6 250,582.3 249.2,581.6 250,577.4 246.3,579.9 247.9,576.7 247,574.8 243.1,576 241.8,575.9 
		244.9,572 240.3,572.5 239.7,571.8 242.4,568.8 239.5,568.5 244.7,565.5 238.3,565.3 239.6,564 238.2,562.4 238.3,561.2 
		238.9,559.9 242.4,558.1 239.8,556.3 240.3,554.9 239.3,553.5 240.5,552.2 239.6,550.4 239.4,549.1 239.8,548.2 245.2,548.1 
		239.4,543.9 239.7,542.7 240.5,541.4 241.1,540.3 247.8,543.2 245.8,539.7 248.7,540.8 248.1,537.5 247.7,534.8 248,533.8 
		251.5,536.5 252.5,534.9 254,534.5 254.7,532.2 255.3,531.3 258,535.5 259.1,531.5 260,528.9 261,529.6 262.7,534.2 264.5,532.8 
		266.1,533 267.4,531.1 268.5,532 270,532.3 271.8,532.8 273,531.1 274.1,533.2 276.1,534.2 277.6,531.2 279,531.6 280.1,529.5 
		281.6,534.5 283.4,529 284.5,528.8 285.6,529 286.9,531.5 288.8,534 290.6,531.6 291.5,530.2 293,535.3 294.6,531.9 295.7,533.9 
		297.4,534.1 299.2,534.2 300.4,529.9 301.3,532.3 303,535 305,533.7 306.1,531 307,532.6 309,535.6 310.5,531.7 311.6,533.7 
		313.6,532.6 314.8,529.3 316,531.3 317.8,529.7 318.6,529.6 320.5,535.2 322.1,529.3 323.3,530.7 324.6,529.1 326,531.6 327.9,530 
		328.8,529.4 330.1,532.9 332,534.5 333.8,531.8 334.9,528.8 335.8,530.3 337.2,532.5 339.3,534.6 340.7,530.6 341.7,532.1 
		343.1,531.8 344.9,535.4 346.5,531.1 347.3,531.9 349,534.7 350.9,533.5 352.4,531.9 353.4,530 354.5,532.8 356,534 357.9,535.1 
		359.6,532.2 360.6,530.9 362.1,533.5 363.8,529.9 364.7,530 366.5,532.2 367.8,529.3 368.9,531.8 370.4,531.9 372.2,535 
		373.5,531.8 374.9,535.6 376.7,532 378.1,532.2 379.5,529.6 380.5,530.1 382.2,531.1 383.5,529.7 385.1,531.7 386.4,529.4 
		387.8,532.6 389.2,530.3 390.8,536.3 392.4,529.8 393.6,532.3 395.5,529.3 396.2,528.7 397.9,534.9 399.4,530.7 400.4,533.1 
		402.5,534.6 403.7,531.9 404.9,535 407,534 408,531 409.2,535 411.3,532.5 412.7,531.1 414,529.3 414.9,529.6 416.3,531.7 
		417.8,532.1 419.4,533.8 421.4,533 422.5,529.2 423.8,531.9 425.2,529.4 426.7,533.7 428.2,529.6 429.6,532.2 430.9,529.3 
		432.3,534.2 434,531 435,531.9 436.5,532.9 438.5,533.7 439.7,531.3 441.1,534 442.9,530.5 444.1,529.9 445,530 446.9,535.1 
		448.3,529.9 449.4,535.2 451.5,533.3 453,531.9 454,529.2 455.4,533 457.3,530.1 458.3,529.5 459.7,531.3 461.6,530 462.8,528.8 
		463.9,529.4 465.2,530.2 466.9,533.9 468.5,531.7 469.8,533.5 471.3,532.2 472.9,534.3 474.2,530.5 475.7,534.6 477.4,529 
		478.2,529.6 480,530.7 481.3,529.4 482.4,531.1 484.4,533.3 486.2,529.8 487,528.8 488.5,533 490.2,530.6 491.2,531.2 493,533.1 
		494.8,530.4 495.8,529.4 496.8,531 498.9,535.3 500.6,528.3 501.6,528 502.8,528.1 504.1,530.1 505.9,531.7 507.3,530.6 
		508.4,531.9 510,534.5 512,534.2 513.1,532.8 514.6,535.4 516.4,532.2 517.8,531.5 518.9,530 519.7,533.6 521.8,533.3 523.4,531.2 
		523.3,534.8 525.2,535.2 527.3,534.3 528.8,533.6 527.9,537.1 528.9,538.3 529.7,539.6 531.4,539.9 532.3,540.4 532.3,541.9 
		532.9,543.6 535.8,543.5 537.6,543.5 535.5,545.9 536.9,547.4 538.5,547.8 535.6,550.1 539.8,551 540.2,551.9 539,553.2 
		537.8,554.8 537.9,556.8 540.4,558.2 539.5,559.7 541.8,561 538.5,562.3 540.9,564.2 539.9,565 535.6,566 540.4,569 539.7,569.6 
		534.8,569.2 534.8,571.2 535.4,573.2 536.8,575.6 535.6,575.8 532.4,575 530.4,575.5 530.4,577.3 528.3,577.1 529.8,581.5 
		528.5,581.7 527.6,583.7 526.9,585.1 525.3,584.3 522.2,580.7 521.6,585.2 520.5,585.5 518.8,585.7 517.7,587.3 516.2,584.5 
		514.7,585.5 513.6,584 511.5,581.3 510.2,586.8 508.9,583.8 507.6,586.3 506,580.7 504.5,585.9 503.5,583.4 501.7,581.7 499.9,583 
		498.8,585.3 497.3,582.3 496,586.2 494.8,581.1 492.9,583.2 491.4,582.5 490.3,584.5 488.8,581.2 486.9,584.6 486,586 484.6,582 
		482.7,584.8 481.3,585.5 479.9,586.5 478.9,586.7 477.2,583.8 475.6,587.2 474.8,586.7 472.9,582 471.5,586.8 470.5,584.4 
		468.7,582.5 466.8,583.7 465.5,586.7 464.7,586.3 462.9,581.4 461.4,585.2 460,582.3 458.3,586.1 457.1,585.8 456,586.1 
		454.3,582.6 452.8,585.4 451.4,582.5 449.9,586 448.9,584.2 447,582.5 445.7,584.4 444.5,581.8 442.4,582.5 441,585.5 440.2,585.6 
		438.4,581.8 437.1,585.4 435.6,580.1 434.2,584.8 433,581.3 431,582.2 429.7,584.5 428.2,583.6 427.1,585.8 425.8,581.7 424,583.4 
		422.7,583.2 421.5,583.3 419.6,580.2 418.2,586.1 417.2,583.8 415.5,584.3 414.3,584 412.9,583 410.9,581.7 409.8,586.3 408.7,582 
		407,581.9 405.2,581.3 403.6,584 402.2,586.1 401.3,586.7 400,585.2 398.3,584.6 397.1,585 395.5,581.5 394,583.7 392.6,581.1 
		391.1,583 389.6,581.5 387.8,584.3 386.6,587.4 	"/>
	<path d="M501.7,528.5l0.8,0l1.2,1.7l0.1,0.1l0.1,0.1l1.5,1.3l0.6,0.5l0.6-0.5l0.7-0.5l0.8,0.9l1.4,2.3l0.4,0.6l0.7-0.1l1.4-0.3
		l0.4-0.1l0.2-0.3l0.5-0.7l0.7,1.3l0.9,1.5l0.9-1.5l1.3-2.3l1.2-0.6l0.2-0.1l0.1-0.2l0.4-0.5l0.4,2l0.2,0.9l0.9-0.1l1.4-0.2l0.4-0.1
		l0.2-0.3l0.6-0.7l0,1.7l0,0.8l0.8,0.2l1.3,0.3l0.3,0.1l0.3-0.1l2-0.9l0.5-0.2l-0.6,2.2l-0.1,0.5l0.3,0.4l0.8,1l0.7,1.1l0.2,0.3
		l0.4,0.1l1.3,0.3l0.6,0.3l0,1.1v0.2l0,0.1l0.4,1.3l0.2,0.7l0.7,0l2.5-0.1l0.7,0l-1.1,1.2l-0.6,0.7l0.7,0.7l1,1l0.2,0.2l0.2,0.1
		l0.5,0.2l-1.3,1l-1.7,1.3l2.1,0.4l2.9,0.6l0.2,0.4l-1,1.1l-1.1,1.4l-0.2,0.3l0,0.4l0.1,1.5l0,0.5l0.5,0.3l1.8,1l-0.4,0.6l-0.6,0.9
		l0.9,0.5l1,0.5l-1.5,0.6l-1.6,0.7l1.4,1.1l1.2,0.9l-0.5,0.4l-3,0.7l-2.3,0.5l2,1.3l3.2,2l0,0l-4.2-0.4l-1-0.1l0,1.1l0,1.4l0,0.2
		l0.1,0.2l0.6,1.9l0,0.1l0.1,0.1l1,1.7l-0.5,0.1l-2.9-0.7l-0.2-0.1l-0.2,0.1l-1.5,0.4l-0.7,0.2l0,0.8l0,0.8l-0.8-0.1l-1.5-0.1
		l0.5,1.4l1,3.2l-0.5,0.1l-0.5,0.1l-0.2,0.5l-0.8,1.7l-0.5,1l-1-0.5l-2.4-2.7l-1.5-1.7l-0.3,2.2l-0.4,3l-0.8,0.2l-1.4,0.2l-0.5,0
		l-0.3,0.4l-0.5,0.7l-0.8-1.6l-0.5-1l-0.9,0.6l-0.7,0.4l-0.9-1.2l-1.4-1.8l-1.3-1.6l-0.5,2l-0.7,3l-0.2-0.6l-0.8-1.9l-1,1.8
		l-0.3,0.5l-0.8-2.7l-1-3.4l-1,3.4l-0.6,2.1l-0.4-1l-0.1-0.2l-0.2-0.2l-1.4-1.3l-0.6-0.5l-0.7,0.5l-1.4,1l-0.2,0.2l-0.1,0.2
		l-0.6,1.2l-0.5-1l-1.1-2.2l-0.8,2.3l-0.4,1.1l-0.6-2.5l-0.5-1.8l-1.3,1.4l-1,1.1l-0.8-0.3l-0.8-0.4l-0.5,0.8l-0.5,0.8l-0.6-1.5
		l-0.8-1.8l-1,1.7l-1.4,2.5l-0.3,0.5l-0.8-2.1l-0.7-1.8l-1.1,1.6l-1.3,1.9l-1.2,0.6l-0.1,0l-0.1,0l-1.2,0.9l-0.5,0.1l-1.1-1.7
		l-1-1.5l-0.8,1.6l-1,2l-0.2-0.1l-1.3-3.2l-1.1-2.6l-0.8,2.7l-0.6,2.1l-0.4-0.9l-0.1-0.2l-0.1-0.1l-1.4-1.5l-0.5-0.6l-0.7,0.4
		l-1.4,0.9l-0.3,0.2l-0.1,0.3l-1,2.4l-0.1-0.1l-1.3-3.5l-0.9-2.4l-1,2.4l-0.6,1.5l-0.4-0.9l-0.9-1.9l-0.9,2l-1.1,2.4l-0.6-0.2
		l-0.3-0.1l-0.3,0.1l-0.6,0.2l-1.1-2.2l-0.9-1.8l-0.9,1.8l-0.5,1.1l-0.5-1.1l-1-1.9l-0.8,2l-0.6,1.5l-0.4-0.8l-0.1-0.2l-0.1-0.1
		l-1.4-1.3l-0.9-0.8l-0.6,0.9l-0.5,0.7l-0.7-1.4l-0.4-0.8l-0.8,0.3l-1.4,0.5l-0.4,0.1l-0.2,0.4l-1.2,2.6l-0.2,0l-1.1-2.4l-1-2.2
		l-0.8,2.2l-0.4,1l-0.6-2.1l-0.9-3.2l-1,3.2l-0.5,1.6l-0.5-1.5l-0.3-1.1l-1,0.5l-1.4,0.7l-0.3,0.1l-0.2,0.3l-0.9,1.7l-0.6-0.3
		l-0.9-0.5l-0.5,0.9l-0.3,0.6l-0.7-2.2l-0.5-1.5l-1.1,1.1l-1.1,1l-1-0.2l-0.1,0l-0.1,0l-0.8,0l-1.1-1.8l-1.3-2.1l-0.5,2.4l-0.8,3.2
		l-0.2-0.5l-0.3-0.8l-0.8,0.2l-1.2,0.3l-1-0.2l-1.3-1l0,0l0,0l-1.4-0.9l-1.2-0.8l-0.3,1.4l-0.5,1.9l-0.5-2l-0.2-0.8l-0.8,0l-1.3,0
		l-1.3-0.4l-0.8-0.3l-0.4,0.7l-1.4,2.3l-1.3,2.1l-0.5,0.3l-0.9-1.1l-0.2-0.2l-0.2-0.1l-1.4-0.5l-0.4-0.1l-0.4,0.1l-0.6,0.2l-1-2.3
		l-0.7-1.6l-1,1.5l-0.5,0.8l-0.7-1.2l-0.7-1.3l-0.9,1.2l-0.7,0.9l-0.6-0.7l-0.9-0.9l-0.7,1l-1.4,2.2l-0.1,0.1l0,0.1l-0.8,2.2
		l-0.3-0.4l-0.6-0.8l-0.8,0.6l-0.4,0.3l-0.9-2.1l-0.7-1.6l-1,1.5l-0.4,0.5l-0.8-2l-0.5-1.4l-1.1,1l-1.4,1.3l-0.2,0.2l-0.1,0.2
		l-0.6,1.8l-0.4-0.8l-0.2-0.5l-0.5-0.1l-1-0.1l-1.2-1.6l-0.2-0.3l-0.4-0.1l-1.4-0.3l-0.9-0.2l-0.3,0.8l-1.4,3.5l-0.3,0.3l-0.8-1.9
		l-0.9-2.1l-0.9,2.1l-1,2.3l-0.2-0.1l-1.3-2.5l-0.9-1.7l-0.9,1.6l-0.5,1l-0.6-1.2l0,0l0,0l-1.4-2.4l-1.2-2l-0.6,2.2l-0.7,2.3
		l-0.3-0.8l-0.1-0.2l-0.2-0.2l-1.4-1.1l-1-0.8l-0.5,1.2l-0.5,1.1l-0.5-1.5l-0.3-0.9l-0.9,0.2l-1.3,0.3l-1.3-0.1l-0.3,0l-0.2,0.1
		l-1.4,0.7l-0.3,0.2l-0.1,0.3l-0.8,1.6l-0.4-0.6l-0.3-0.4l-0.5,0l-1.4,0.1l-0.5,0l-0.3,0.4l-0.5,0.6l-0.7-1.5l-0.9-1.7l-0.9,1.7
		l-0.5,0.9l-0.6-1.4l-1.1-2.4l-0.8,2.5l-0.7,2.2l-0.3-0.6l-0.7-1.4l-1,1.3l-0.9,1.2l-0.7-0.4l-0.1,0l-0.1,0l-1.4-0.6l-0.9-0.4
		l-0.4,0.9l-0.3,0.6l-0.7-2.9l-0.5-1.8l-1.2,1.4l-1.4,1.6l-0.1,0.1l0,0.1l-0.6,1l-0.6-0.9l-0.3-0.4l-0.5-0.1l-1.4-0.2l-0.6-0.1
		l-0.3,0.5l-0.6,1l-0.6-1l-0.6-1l-0.9,0.7l-0.4,0.3l-0.9-2.1l-1.2-2.8l-0.6,3l-1.1,5.3h0l-1.3-2.4l-0.6-1.2l-0.9,1l-0.4,0.4
		l-0.9-2.2l-0.7-1.8l-1,1.6l-1.4,2.2l0,0l0,0l-0.2,0.4l-0.8-3.2l-0.6-2.3l-1.2,2l-1.5,2.3l-0.5,0.8l-0.6-1.4l-0.4-0.8l-0.8,0.2
		l-1.4,0.4l-1.2,0.3l-1.2-0.3l-1.4-0.3l-0.8-0.2l-0.3,0.7l-1.1,2.5l-0.4,0l-1.2-1.2l0,0l0,0l-1.4-1.2l-0.5-0.5l-0.6,0.3l-1.4,0.8
		l-0.3,0.2l-0.1,0.3l-1.1,2.5l-0.2,0l-1.2-2.7l-0.2-0.5l-0.5-0.1l-1.4-0.3l-0.6-0.1l-0.4,0.5l-0.9,1.2l-0.6-0.5l0,0l0,0l-1.4-0.9
		l-1.1-0.7l-0.4,1.2l-0.5,1.7l-0.5-1.2l0,0l0,0l-1.4-2.9l-0.7-1.5l-1,1.3l-1.4,2l0,0l0,0l-0.8,1.5l-0.5-0.5l-0.8-0.7l-0.7,0.8
		l-1.5,1.7l-0.3,0.3l-0.9-3l-0.2-0.8l-0.8,0.1l-1.4,0.2l-0.4,0l-0.2,0.3l-0.4,0.4L260,582l-0.1-0.5l-0.5-0.2l-1.1-0.4l-1.1-0.6
		l-0.8-0.5l-0.5,0.7l-0.6,0.8l0.1-1.2l0.3-2.9l-2,2.1l-2.7,2.8l-0.8-0.2l-0.5-0.5l0.5-2.7l0.4-2.3l-2,1.3l-1.2,0.8l0.6-1.3l0.2-0.4
		l-0.2-0.4l-0.6-1.3l-0.4-0.8l-0.8,0.3l-3.4,1l-0.3,0l1.8-2.2l1.5-1.9l-2.4,0.3l-3.2,0.3l-0.1-0.2l1.8-1.9l1.3-1.5l-2-0.2l-0.4,0
		l2.4-1.3l3.1-1.7L243,565l-3.6-0.1l0.2-0.2l0.6-0.7l-0.6-0.7l-0.9-1.1l0.1-1l0.4-1l2.6-1.4l1.5-0.8l-1.4-1l-1.6-1.1l0.3-0.8
		l0.1-0.5l-0.3-0.4l-0.6-0.8l0.7-0.7l0.5-0.5l-0.3-0.6l-0.7-1.4l-0.2-1.1l0.2-0.5l3.5,0l3,0l-2.4-1.8l-4.3-3.1l0.2-0.8l0.8-1.2
		l0.1-0.1l0-0.1l0.3-0.6l4.9,2.1l2.7,1.2l-1.5-2.6l-0.6-1l0.8,0.3l1.7,0.6l-0.3-1.8l-0.4-2.4l-0.4-2.6l0.1-0.3l2.5,1.9l0.9,0.7
		l0.6-0.9l0.6-1l1-0.2l0.5-0.1l0.2-0.5l0.6-2l0.1-0.2l1.7,2.6l1.2,1.9l0.6-2.2l0.8-2.9l0.6-2l0.3,0.2l1.4,3.8l0.5,1.2l1.1-0.8
		l1.1-0.8l1.1,0.1l0.6,0l0.3-0.5l0.8-1.2l0.6,0.5l0.2,0.2l0.2,0l1.4,0.3l1.4,0.3l0.7,0.2l0.4-0.6l0.5-0.7l0.7,1.2l0.1,0.3l0.3,0.1
		l1.4,0.7l0.9,0.5l0.5-0.9l1.1-2.2l0.6,0.2l0.8,0.2l0.4-0.7l0.3-0.6l0.7,2.3l0.9,3l1-3l1.2-3.7l0.7-0.1l0.8,0.1l1.2,2.3l0,0.1
		l0.1,0.1l1.4,1.8l0.8,1l0.8-1l1.4-1.9l0,0l0,0l0.3-0.4l0.8,2.7l0.8,2.5l1.1-2.4l0.6-1.3l0.5,0.9l0.2,0.5l0.5,0l1.5,0.1l1.4,0.1
		l0.8,0l0.2-0.8l0.6-2.4l0.3,0.9l0,0.1l0.1,0.1l1.4,2.2l0.5,0.8l0.8-0.5l1.4-0.9l0.3-0.2l0.1-0.3l0.7-1.7l0.4,0.7l0,0l0,0l1.4,2.2
		l1.1,1.7l0.7-1.9l0.7-1.9l0.4,0.6l0.5,0.8l0.9-0.4l1.4-0.8l0.4-0.2l0.1-0.4l0.7-2.1l0.3,0.6l0.6,1.1l0.9-0.9l1.2-1.1l0.3,0l1.2,3.6
		l1,3.1l0.9-3.1l1-3.4l0.2,0.2l0.8,0.9l0.7-0.9l0.5-0.6l0.7,1.3l0.6,1.1l0.9-0.8l1.4-1.2l0.4-0.3l1,2.8l0.1,0.3l0.2,0.2l1.4,1.2
		l0.9,0.7l0.6-0.9l1.4-2.2l0.1-0.1l0-0.1l0.7-2l0.4,0.6l0,0l0,0l1.4,2.2l0,0.1l0.1,0.1l1.4,1.5l1.1,1.2l0.5-1.6l0.8-2.4l0.3,0.4
		l0.4,0.5l0.6-0.2l0.7-0.2l1.1,2.2l1,2.1l0.8-2.2l0.9-2.5l0.2,0.2l1.4,2.2l0.5,0.8l0.9-0.5l1.4-0.8l0.1-0.1l0.1-0.1l1.4-1.5l0.1-0.1
		l0.1-0.1l0.4-0.8l0.6,1.6l0.1,0.3l0.2,0.2l1.4,1.1l0,0l0,0l1.4,0.9l0.9,0.5l0.5-0.9l1.4-2.5l0.5-0.7l0.7,1.2l1,1.7l0.8-1.7l1.1-2.4
		l0.3,0.1l1.2,1.4l1,1.2l0.6-1.5l0.5-1.2l0.5,1.2l0.3,0.6l0.6,0l0.9,0l1.1,2l1,1.8l0.8-1.9l0.5-1.1l0.5,1.5l0.8,2.2l1-2.1l1.1-2.3
		l0.7,0.1l0.7,0.1l0.3-0.6l1-1.8l0.5,0.3l1.4,0.8l0.7,0.4l0.5-0.6l0.6-0.7l0.7,0.9l0.9,1.2l0.8-1.3l0.5-0.8l0.6,1.4l0.8,1.7l1-1.6
		l0.2-0.4l0.8,3l1,3.8l0.9-3.8l0.8-3.3l0.2,0.5l0.8,1.7l1-1.6l1.3-2.2l0.1-0.1l1.1,4l0.8,3.1l1.1-3l0.6-1.5l0.5,1.1l0.1,0.3l0.2,0.2
		l1.4,1l1,0.7l0.5-1.1l0.5-1l0.6,1.5l0.4,1l1-0.5l1.4-0.7l0.4-0.2l0.1-0.4l0.5-1.3l0.5,1.7l0.5,1.8l1.2-1.4l1.4-1.7l1.4-1.5l0,0
		l0-0.1l1-1.4l0.4,0.1l1.2,1.8l0.2,0.3l0.4,0.1l1.1,0.3l1.2,1.3l0.5,0.5l0.6-0.2l1.4-0.5l0.5-0.2l0.1-0.5l0.7-2.4l0.3,0.7l0.9,1.8
		l0.9-1.7l0.4-0.7l0.7,2l0.9,2.6l1-2.6l0.7-1.8l0.4,0.7l1,1.8l0.8-1.9l0.3-0.7l0.7,2.4l0.7,2.4l1.2-2.2l0.8-1.6l0.5,0.5l0.1,0.1
		l0.1,0l1.4,1l0.1,0.1l0.1,0l1.4,0.6l0.9,0.3l0.4-0.8l0.6-1.2l0.5,1l0.9,1.7l0.9-1.7l1.3-2.5l0.9-0.5l0.5,0.1l1.2,3.3l1.1,3l0.8-3.1
		l0.4-1.6l0.5,2.4l0.4,1.7l1.3-1.2l1.5-1.3l1.4-1.4l0.2-0.2l0.1-0.2l0.5-1.2l0.5,1.5l0.7,1.9l1.1-1.7l1.3-2l0.5-0.3l0.9,1.1l0.6,0.7
		l0.8-0.6l1.4-1.1l0,0l0,0l0.9-0.9l0.8,0.4l1.2,0.7l1.3,2.8l0.7,1.6l1-1.4l0.6-0.9l0.6,0.8l0.7,0.9l0.8-0.8l0.6-0.6l0.8,1l1.1,1.5
		l0.6-1.8l0.5-1.6l0.5,1.3l1,2.9l0.9-3l1-3.5l0.3,0.2l0.1,0l0.1,0l1.4,0.8l0.7,0.4l0.5-0.5l0.6-0.6l0.8,1.2l0,0.1l0.1,0.1l1.4,1.5
		l1,1l0.6-1.3l1.4-2.7l0.2-0.3l0.8,2.4l0.6,1.8l1.1-1.5l0.9-1.2l0.6,0.4l1.4,1.4l0.9,0.9l0.7-1l1.4-2.1l0.5-0.6l0.7,1l1.4,3l1.2,2.6
		l0.7-2.8l1.3-5.3L501.7,528.5 M501.6,527.5l-1.4,0.3l-1.4,5.9l-1.4-3.1l-1.4-2.2l-1.4,1.6l-1.4,2.1l-1.4-1.5l-1.4-0.9l-1.4,2
		l-1.4-4.1l-1.4,1.8l-1.4,2.8l-1.4-1.5l-1.4-2.3l-1.4,1.5l-1.4-0.8l-1.4-1.1l-1.4,4.9l-1.4-4.1l-1.4,4.3l-1.4-1.8l-1.4,1.4l-1.4-2
		l-1.4,2.1l-1.4-3.1l-1.4-0.8l-1.4-0.8l-1.4,1.4l-1.4,1.1l-1.4-1.7l-1.4,0.8l-1.4,2.2l-1.4-4.1l-1.4,3.8l-1.4,1.4l-1.4,1.3l-1.4-6.5
		l-1.4,5.7l-1.4-3.9l-1.4-0.2l-1.4,0.8l-1.4,2.8l-1.4-2.7l-1.4,2.9l-1.4-0.6l-1.4-1l-1.4-1.4l-1.4,2.8l-1.4-5l-1.4,3.2l-1.4-2.7
		l-1.4,3.8l-1.4-4.1l-1.4,2.7l-1.4-3l-1.4,4.9l-1.4,0.5l-1.4-1.6l-1.4-0.4l-1.4-2.2l-1.4-0.4l-1.4,2l-1.4,1.5l-1.4,1.8l-1.4-4.6
		l-1.4,4.3l-1.4,0.7l-1.4-3.7l-1.4,3.2l-1.4-1l-1.4-3.4l-1.4,3.9l-1.4-5.4L395,529l-1.4,2.4l-1.4-3l-1.4,6l-1.4-5.3l-1.4,2.4
		l-1.4-3.2l-1.4,2.5l-1.4-1.9l-1.4,1.6l-1.4-0.9l-1.4-0.8l-1.4,2.7l-1.4-0.2l-1.4,2.9l-1.4-3.9l-1.4,3.5l-1.4-2.5l-1.4,0l-1.4-3.3
		l-1.4,3.2l-1.4-1.7l-1.4-0.3l-1.4,3.1l-1.4-2.5l-1.4,1.9l-1.4,2.5l-1.4-0.9l-1.4-1.1l-1.4-3.7l-1.4,2.8l-1.4,1.5l-1.4,0.8l-1.4-2.4
		l-1.4-1.3l-1.4,3.9l-1.4-2.9l-1.4,0.3l-1.4-2.1l-1.4,4.2l-1.4-1.5l-1.4-2.2l-1.4-2.5l-1.4,4l-1.4,2.2l-1.4-1.2l-1.4-4l-1.4,1.1
		l-1.4,1.2l-1.4-2.7l-1.4,1.7l-1.4-1.6l-1.4,5.1l-1.4-4.3l-1.4,0l-1.4,1.4l-1.4-2.5l-1.4,4.2l-1.4,0.8l-1.4-2.5l-1.4,3.9l-1.4-2.2
		l-1.4-2.5l-1.4,3.5l-1.4,0.9l-1.4-2.2l-1.4-3.9l-1.4,5.5l-1.4-0.1l-1.4-0.1l-1.4-2.7l-1.4,3.1l-1.4-4.8l-1.4,2.2l-1.4,1.9l-1.4-1.8
		l-1.4-2.8l-1.4-0.2l-1.4,0.3l-1.4,4.3l-1.4-4.8l-1.4,2.9l-1.4-0.4l-1.4,2.9l-1.4-0.7l-1.3-2.7l-1.4,2.1l-1.4-0.3l-1.4-0.3l-1.4-1.2
		l-1.4,2.1l-1.4-0.1l-1.4,1.1l-1.5-4.1l-1.7-1.1l-1.1,3.2l-0.8,2.9l-2.6-4l-1,1.7l-0.7,2.1l-1.4,0.3l-0.8,1.3l-3.6-2.8l-0.6,1.9
		l0.4,2.8l0.5,2.4l-3.4-1.3l1.9,3.4l-5.8-2.5l-0.7,1.5l-0.9,1.3l-0.3,1.6l4.8,3.5l-4.1,0l-0.6,1.4l0.2,1.6l0.8,1.6l-1.3,1.3l1.1,1.5
		l-0.5,1.5l2.2,1.5l-2.9,1.5l-0.6,1.5l-0.1,1.5l1.2,1.4l-1.7,1.8l5.8,0.2l-5.1,2.9l3.5,0.4l-2.4,2.6l1.1,1.2l3.7-0.4l-2.9,3.7
		l2.3,0.2l3.6-1.1l0.6,1.3l-2.3,4.6l4.3-2.8l-0.6,3.2l1.1,1l1.6,0.3l3.1-3.1l-0.5,4.9l2.8-3.8l1.1,0.7l1.2,0.5l0.9,3.1l1.6-1.7
		l1.4-0.2l1.5,4.8l1.5-1.7l1.5-1.7l1.4,1.3l1.5-2.5l1.4-2l1.4,2.9l1.5,3.8l1.4-4.3l1.4,0.9l1.4,1.1l1.4-2.1l1.4,0.3l1.4,3.2l1.4,0.4
		l1.4-3.3l1.4-0.8l1.4,1.2l1.4,1.5l1.4,0.2l1.4-3.2l1.4,0.3l1.4,0.3l1.4-0.3l1.4-0.4l1.4,3.2l1.4-2.5l1.4-2.3l1.4,5.8l1.4-2.8
		l1.4-2.2l1.4,3.6l1.4-1.5l1.4,2.6l1.4,0.9l1.4-6.7l1.4,3.2l1.4-1.1l1.4,2.4l1.4-2.4l1.4,0.2l1.4,2.2l1.4-2.4l1.4-1.6l1.4,5.7
		l1.4-3.2l1.4,0.6l1.4,0.9l1.4-1.9l1.4,2.8l1.4-4.5l1.4,3.2l1.4-2.6l1.4,2.9l1.4-1.9l1.4-0.1l1.4,1.8l1.4-3.1l1.4-0.7l1.4,0.1
		l1.4-0.4l1.4,3.9l1.4-3.5l1.4,1.1l1.4,3.4l1.4-5l1.4,2.4l1.4,2.9l1.4-2.7l1.4,2.7l1.4,0.8l1.4-3.3l1.4,3.4l1.4-1.7l1.4-3.6l1.4,0.3
		l1.4,2l1.4,0.2l1.4,2.9l1.4-4.1l1.4-1.3l1.4,3.8l1.4-2.1l1.4,3.3l1.4-1.1l1.4,1.8l1.4-3.9l1.4-2.2l1.4,1.5l1.4-1.8l1.4,2.6l1.4-2.1
		l1.4,3.1l1.4-0.5l1.4,0.5l1.4,1.7l1.4-0.9l1.4-2.3l1.4-2.3l1.4,0.5l1.4,0l1.4,6l1.4-6l1.4,0.9l1.4,1.1l1.4,0.4l1.4-0.4l1.4,3.2
		l1.4-6.1l1.4,2.3l1.4-0.1l1.4,0.2l1.4-1.3l1.4,4.5l1.4-2.8l1.4,0.8l1.4-2.5l1.4-0.7l1.4,4.6l1.4-4.6l1.4,5.1l1.4-3.9l1.4,3.1
		l1.4-0.2l1.4-3l1.4-0.5l1.4,2.9l1.4-2.1l1.4,1.3l1.4,2.7l1.4-3.5l1.4,2.8l1.4-2.8l1.4,3l1.4-0.4l1.4,0.5l1.4-3.2l1.4,3l1.4-3.7
		l1.4,3.8l1.4,0.8l1.4-3.4l1.4-0.9l1.4,1.5l1.4,3.6l1.4-4.8l1.4,3.5l1.4,0.8l1.4-3l1.4,2.3l1.4-0.2l1.4-1l1.4-0.7l1.4-2.1l1.4,4
		l1.4-2.3l1.4-2.5l1.4,3.2l1.4-2.5l1.4,0.7l1.4-1.6l1.4,5.8l1.4-4.4l1.4,2.9l1.4-3.2l1.4-1l1.4,1.3l1.4,3.8l1.4-5l1.4,5.1l1.4-2.6
		l1.4,3.5l1.4-6l1.4,1.8l1.4,1.9l1.4-1l1.7,3.1l1.4-2.2l1.5-0.2l1.5-0.4l0.5-3.7l2.5,2.9l2.1,1l0.9-1.8l0.8-1.7l1.6-0.3l-1.4-4.2
		l1.8,0.2l0-1.9l1.5-0.4l3.1,0.8l2.1-0.4l-1.7-2.9l-0.6-1.9l0-1.4l4.6,0.4l1.3-1.2l-4.3-2.7l3.2-0.7l1.6-1.3l-2.2-1.7l3.4-1.4
		l-2.8-1.5l1-1.5l-2.7-1.5l-0.1-1.5l1.1-1.4l1.3-1.6l-0.6-1.4l-3.4-0.7l2.8-2.2l-2.4-0.7l-1-1l2.6-2.8l-2.9,0l-2.6,0.1l-0.4-1.3
		l0-1.7l-1.2-0.7l-1.5-0.3l-0.7-1.1l-0.8-1l1.1-4.3l-2.4,1.2l-2,0.9l-1.3-0.3l0-4.6l-2.4,3.1l-1.4,0.2l-0.8-4.2l-1.7,2.2l-1.4,0.8
		l-1.5,2.5l-1.5-2.5l-1.5,1.8l-1.4,0.3l-1.5-2.3l-1.4-1.7l-1.4,1.1l-1.5-1.3l-1.4-2.2L501.6,527.5L501.6,527.5z"/>
</g>
<rect x="258.6" y="77.7" class="st4" width="278.2" height="41"/>
<text transform="matrix(1 0 0 1 286.7534 107.9834)" class="st5 st6 st7">Pause Window</text>
<rect x="165.2" y="466.4" class="st4" width="168" height="25.6"/>
<text transform="matrix(1 0 0 1 185.7896 489.0391)" class="st6 st8">Main Menu</text>
<g>
	<polygon class="st3" points="564.4,506.9 562.9,505.5 560.9,502.1 559.4,507.6 558.5,506.9 557.2,505.7 555.4,501.6 553.4,505.3 
		552.5,507.8 551.4,505.2 549.7,503.4 547.8,504.2 546.3,506.1 545.5,506.9 544,501.7 542,504.5 540.7,506 539.5,505.8 538.3,505.9 
		536.8,503.8 535.2,504.8 533.5,503.9 532.2,507.9 531.2,506.1 529.7,505.9 527.8,503.6 526.6,507.4 525.3,503.3 523.8,505.2 
		522.1,502.1 520.5,507.5 519.8,507.4 517.9,501.8 516.5,506.7 515,502.3 513.5,507 512.2,503.7 510.4,507.2 509.6,507.1 
		507.8,502.7 506.5,506.8 505.1,501.8 503.1,505.1 502.2,507.3 500.8,501.9 498.8,506.1 497.9,507.9 496.5,502 494.8,505.2 
		493.8,503.9 492.2,502.5 490.2,502.6 488.7,505.7 487.8,506.3 486.2,503.9 484.7,506.8 483.7,505.7 481.9,503.2 480.4,505.4 
		479.2,503.8 477.3,504.5 476,506.1 474.6,505.9 473.6,506.4 471.9,501.6 470,505.2 469,505.5 467.4,505 466,506.2 464.5,505.2 
		463.1,507.5 461.8,505.4 460.4,507.1 459,504 457.5,506 456.1,503 454.1,505 452.9,507.8 452,507.1 450.6,505.5 448.6,503.6 
		447.3,505.9 445.7,503.5 444.5,507.5 443.4,502.9 441.2,503.1 439.6,506.4 438.5,508.1 437.2,507.4 436,507.9 434.3,505.1 
		432.6,508.1 431.6,507.7 429.9,506.7 428.6,507.9 427.7,504.3 426.5,502.5 424.8,501.4 422.8,505 423.2,500.2 420.1,503.1 
		419.2,503 419.2,500 416.6,500.8 415.3,500.6 414.3,499.5 412.5,499.2 411.6,498.4 410.9,496.9 410,496.2 412.6,492.9 411.5,491.3 
		406.1,492.5 407,491.2 410.1,488.2 406.7,487.9 410.6,485.9 409.1,484.2 404.5,483.2 404.7,482.4 408.7,480.9 409.2,478.9 
		408.1,477.2 407,475.8 407.3,474.7 407.7,473 406.2,471.4 407,470 404.6,467.9 405.8,467.2 410.4,467.1 408,464.4 411,464.6 
		410.1,462.4 412.6,462.9 414.8,462.1 412.3,458.3 416.2,460.7 415.9,457.5 416.8,456.7 418.1,455.8 418.2,453.3 420,453.7 
		420.9,451.4 422,450.9 423.5,451.6 426.6,457.4 427.1,451.2 428.6,453.8 430.4,450.5 431.1,449.8 432.7,456.6 434.5,452.4 
		435.6,453.2 437.5,452.9 438.5,450.6 439.8,456.1 441.5,453.6 442.9,455.3 444.6,453.5 445.7,452.9 447,453.9 448.9,454 
		450.2,452.7 451.6,453.5 452.9,452.4 454,453.6 456.1,456.7 457.4,450.5 458.4,452.9 460.1,453 461.5,452.8 462.7,453.5 
		464.7,455.6 466.3,449.9 467,449.8 468.6,454.5 470.2,452.2 471.5,454.5 473,453.2 474.3,455.6 476.4,454.4 477.8,450.9 
		478.9,450.1 479.9,450.2 481.3,452.5 483.3,456.9 484.7,450.4 485.7,452.8 487.7,452.2 489.1,450.6 490,450.3 491.6,454.6 
		493.3,452.3 494.6,453.2 495.8,452.5 497.6,456.9 499.2,451.2 500.3,452.2 501.7,451.6 503.3,453.5 504.6,451.3 505.7,454.9 
		507.9,455.6 509,450.8 510.4,455.8 511.9,450.9 513,453.7 515,452.8 516.4,452.3 517.4,451.4 518.9,455.2 520.8,453 522.1,452.5 
		523.2,452.1 524.9,455.3 526.4,450.7 527.3,452.5 529.3,454.6 530.8,450.4 531.6,451.5 533.4,453.3 534.8,452.3 536,454 
		538.1,454.3 539.4,450 540.2,451.2 542,456.6 544,452.9 545.3,450.6 546.4,450.4 547.5,450.8 548.9,454 550.9,456.1 552.5,452.7 
		553.8,452.9 555.3,451 556.3,451.2 557.8,451.8 559.4,451.7 560.5,451.5 562.2,456.3 564,452.7 564.9,452.3 566.6,455 568.4,452 
		569.4,450.8 570.8,453.4 572.1,451.8 573.8,457.2 575.5,451.5 576.3,451.7 578.1,455.7 579.7,452.5 580.6,453.5 582.3,454.8 
		584,454.4 585.2,453.8 587,455 588.2,451.9 589.7,456.1 591.3,449.7 592,450.6 593.8,455.7 595.7,452.8 597,452.3 598.1,451.9 
		599.6,453.5 600.9,452.9 602.7,456.7 604.1,451.6 605.2,454.6 607,454.1 608.7,454.4 610,450.5 611.3,452.1 612.5,450.4 614,455.3 
		616,452.5 616.9,450.4 618,454.4 619.8,455.6 621.7,455.6 622.8,451.8 624,455.3 626.1,453.1 627,451.4 628.2,455.4 630.4,455.8 
		631.8,450.8 632.5,452 633.5,457 636,453.6 637.8,452.3 639.3,452.2 640.9,452.4 642.6,452.2 643.7,453.3 644.9,453.9 643.1,459.1 
		646.4,457.9 647.6,458.8 650,458.4 650.1,459.9 650.4,461.5 649.8,463.8 650.9,464.7 648.3,467.6 650.7,468.2 650.2,469.7 
		652.1,470.7 652,472 652.8,472.9 649.3,474.8 653.7,476.4 654.3,477.4 652.8,478.7 652,480.3 651.4,482.3 655,483.8 654.3,484.6 
		650.5,485.7 653,488.1 655.2,490.2 654.6,490.9 648.8,490.2 648.8,491.8 647.1,492.7 650.6,496.4 647.8,495.5 646.5,496.5 
		645.7,497.5 643.5,497.7 645.3,501.7 643.5,500.9 641.3,500.5 640.2,502.1 639.7,503.9 638.5,503.8 637.1,503.5 634.9,501.2 
		633.7,503.1 632.4,503.3 631.3,504.5 630.3,504 628.4,502.1 627,505.5 625.5,504.1 624.2,508 623.2,505.6 621.2,504.4 619.8,507 
		618.9,506.6 617.2,501.1 615.6,504.4 614.4,501.9 612.4,503.7 611.4,506.1 609.9,500.6 608.2,508 607.3,507.2 606,506.4 
		604.1,502.7 602.4,507.3 601.6,507.5 600.2,503.2 598.1,504.3 596.8,505.8 595.5,505.9 594.5,505.8 592.7,501.2 590.8,505.4 
		589.8,507.5 588.8,505.5 586.7,503.3 585.5,507.2 584.2,501.8 582.2,505.2 580.9,506.6 580.1,506.8 578.2,500.7 576.9,506.9 
		575.6,501.6 573.7,505.7 572.8,506 571.3,502.9 569.6,504.4 568,504.1 566.4,507.4 565.5,508.4 	"/>
	<path d="M466.7,450.4l1.2,3.3l0.6,1.9l1.1-1.6l0.5-0.8l0.6,1.1l0.6,1l0.9-0.8l0.5-0.5l0.8,1.4l0.5,0.9l0.9-0.5l1.4-0.8l0.3-0.2
		l0.1-0.3l1.3-3.2l0.9-0.6l0.6,0.1l1.2,2l1.4,3l1.2,2.7l0.6-2.9l0.8-3.5l0.2,0.5l0.4,0.8l0.9-0.3l1.4-0.4l0.3-0.1l0.2-0.2l1.3-1.4
		l0.3-0.1l1.1,2.9l0.6,1.7l1.1-1.5l0.9-1.2l0.6,0.4l0.5,0.4l0.5-0.3l0.5-0.2l1,2.5l1.1,2.7l0.8-2.8l1-3.5l0.2,0.2l0.5,0.5l0.6-0.3
		l0.8-0.4l1,1.1l0.9,1.1l0.7-1.2l0.3-0.6l0.7,2.3l0.2,0.5l0.5,0.2l1.4,0.5l1,0.3l0.2-1.1l0.5-2.4l0.4,1.4l0.9,3.3l1-3.3l0.6-1.9
		l0.4,1l0.4,1l0.9-0.4l1.4-0.6l1.4-0.5l0.2-0.1l0.1-0.1l0.4-0.3l0.9,2.3l0.6,1.5l1.1-1.2l1.3-1.4l1.2-0.5l0.6-0.2l1,1.8l1.1,2
		l0.7-2.2l0.7-2.3l0.3,0.6l0.1,0.1l0.1,0.1l1.4,1.5l1.1,1.2l0.5-1.5l0.9-2.6l0.3,0.4l0,0l0,0l1.4,1.5l0.6,0.6l0.7-0.5l0.7-0.5
		l0.8,1.1l0.2,0.3l0.4,0.1l1.4,0.2l0.9,0.1l0.2-0.9l0.8-2.8l0.2,0.3l1.4,4.2l0.7,2.2l1.1-2.1l1.4-2.7l1.2-2.1l0.7-0.1l0.8,0.3l1.3,3
		l0.1,0.2l0.1,0.1l1.4,1.5l1,1l0.6-1.3l1.1-2.4l0.7,0.1l0.6,0.1l0.3-0.5l1.1-1.4l0.7,0.1l1.3,0.5l0.2,0.1l0.2,0l1.4-0.1h0h0l0.6-0.1
		l1.2,3.3l0.8,2.1l1.1-2l1.3-2.4l0.3-0.2l1,1.6l0.8,1.4l0.9-1.3l1.4-2.2l0.5-0.6l0.7,1.3l0.7,1.3l1-1.1l0.3-0.3l0.9,2.9l1,3.1l1-3.1
		l1.1-3.7l0,0l1.3,2.9l0.8,1.9l1-1.9l0.8-1.6l0.5,0.4l0,0l0,0l1.4,1.2l0.4,0.3l0.5-0.1l1.4-0.3l0.1,0l0.1-0.1l0.9-0.5l0.9,0.7l1,0.8
		l0.5-1.2l0.5-1.3l0.5,1.4l1.1,3l0.8-3.1l1-3.8l0.1,0.1l1.4,4l0.7,1.9l1.1-1.7l1.3-1.9l1.1-0.5l0.8-0.3l1,1.1l0.5,0.5l0.7-0.3
		l0.5-0.2l1,2.2l1.2,2.5l0.7-2.6l0.6-2.3l0.4,1.1l0.3,0.9l0.9-0.3l1.2-0.4l1.2,0.2l0.8,0.1l0.3-0.8l0.9-2.6l0.3,0.4l0.8,1l0.8-1
		l0.2-0.3l0.9,3l0.6,2l1.2-1.7l1.5-2l0.1-0.1l0-0.1l0.3-0.7l0.7,2.5l0.1,0.4l0.3,0.2l1.5,1l0.3,0.2l0.3,0l1.4,0l0.7,0l0.2-0.7
		l0.6-1.9l0.4,1.2l0.5,1.6l1.1-1.2l1.5-1.5l0.1-0.1l0.1-0.1l0.3-0.6l0.8,2.5l0.2,0.6l0.6,0.1l1.5,0.3l0.9,0.2l0.2-0.9l1-3.4l0.1,0.1
		l0.7,3.8l0.4,2.2l1.3-1.8l1.8-2.4l1.6-1.2l1.3-0.1l1.5,0.2l0.1,0l0.1,0l1.4-0.2l0.8,0.9l0.1,0.1l0.2,0.1l0.7,0.3L643,458l-0.7,2
		l1.9-0.7l2.1-0.7l0.7,0.6l0.3,0.3l0.4-0.1l1.7-0.3l0.1,0.9v0.1l0,0.1l0.3,1.5l-0.5,1.9l-0.2,0.6l0.5,0.4l0.4,0.3l-1.7,1.9l-1.1,1.2
		l1.6,0.4l1.1,0.3l-0.2,0.6l-0.3,0.8l0.8,0.4l1.2,0.6l-0.1,0.8l0,0.4l0.3,0.3l0.3,0.3l-2,1l-2,1.1l2.2,0.8l3.2,1.1l0.3,0.5l-1.2,1
		l-0.2,0.1l-0.1,0.2l-0.7,1.5l0,0l0,0l-0.5,1.5l-0.3,0.9l0.9,0.4l2.5,1l-0.1,0.1l-2.9,0.9l-1.6,0.5l1.2,1.2l1.9,1.8l1.9,1.7
		l-0.1,0.2l-5-0.6l-1.1-0.1l0,1.1l0,0.8l-0.8,0.4l-1.2,0.6l0.9,1l1.7,1.8l-0.7-0.2l-0.5-0.2l-0.4,0.3l-1.1,0.9l0,0l0,0l-0.7,0.7
		l-1.3,0.1l-1.3,0.2l0.5,1.2l0.9,2.2l-0.5-0.2l-0.1-0.1l-0.2,0l-1.8-0.3l-0.6-0.1l-0.4,0.5l-0.9,1.2l-0.1,0.1l0,0.2l-0.3,1.3l-0.7,0
		l-1.2-0.2l-1.7-1.7l-0.9-0.9l-0.7,1.1l-0.7,1.2l-0.9,0.1l-0.3,0.1l-0.2,0.2l-0.7,0.8l-0.6-0.3l-1.3-1.3l-1-1l-0.6,1.4l-0.9,2.1
		l-0.4-0.4l-1.1-1l-0.5,1.5l-0.6,1.9l-0.4-1l-0.1-0.3l-0.3-0.2l-1.4-0.9l-0.9-0.6l-0.5,0.9l-1,1.8l-0.2-0.1l-1.3-4.1l-0.8-2.4
		l-1.1,2.3l-0.6,1.2l-0.5-1l-0.6-1.1l-1,0.8l-1.4,1.2l-0.2,0.2l-0.1,0.2l-0.4,0.9l-0.6-2.2l-1.1-3.8l-0.9,3.9l-1,4.6l-0.2-0.1
		l-0.1-0.1l-0.1-0.1l-1.2-0.7l-1.3-2.6l-1-2l-0.8,2.1L602,507l0,0l-1.1-3.3l-0.4-1.1l-1,0.6l-1.4,0.8l-0.2,0.1l-0.1,0.1l-1.2,1.3
		l-1,0.1l-0.7,0l-1.2-3.2l-0.8-2.2l-1,2.2l-1.4,3.1l-0.6,1.1l-0.5-1l-0.1-0.1l-0.1-0.1l-1.4-1.5l-1.2-1.3l-0.5,1.7l-0.4,1.3
		l-0.6-2.4l-0.6-2.4l-1.3,2.1l-1.4,2.3l-1.2,1.2l-0.2,0.1l-1.2-3.8l-1.1-3.7l-0.8,3.8l-0.5,2.2l-0.4-1.8l-0.7-2.8l-1.2,2.6l-1.2,2.6
		l-0.2,0.1l-1-2.1l-0.6-1.1l-1,0.8l-1,0.9l-0.9-0.2l-0.8-0.2l-0.3,0.7l-1.4,2.9l-0.5,0.5l-0.7-1l0-0.1l0,0l-1.3-1.4l-1.4-2.3l-1.2-2
		l-0.6,2.2l-1,3.6l-0.2-0.2l-1.3-1.2l-1.3-3.1l-0.8-1.9l-1,1.9l-1.4,2.8l0,0l0,0l-0.5,1.3l-0.5-1.3l-0.1-0.2l-0.1-0.1l-1.4-1.5
		l-0.5-0.5l-0.6,0.3l-1.4,0.7l-0.2,0.1l-0.1,0.2l-1.4,1.7l-0.2,0.2l-1-3.4l-0.6-1.9l-1.2,1.6l-1.4,1.9l-1.1,1.3l-0.9-0.1l-0.1,0
		l-0.1,0l-0.9,0.1l-1.1-1.5l-0.5-0.7l-0.8,0.5l-0.9,0.6l-0.9-0.5l-1.1-0.6l-0.4,1.2l-0.8,2.3l-0.3-0.5l-0.2-0.4l-0.5-0.1l-1.1-0.2
		l-1.2-1.4l-1.2-1.4l-0.5,1.7l-0.5,1.4l-0.5-1.7l-0.5-1.8l-1.2,1.5l-0.5,0.6l-0.7-1.4l-1.1-2.2l-0.7,2.3l-1.2,3.8l-1.3-3.8l-1-3
		l-0.9,3.1l-0.5,1.8l-0.4-1.4l-1-3l-0.9,3l-0.6,1.9l-0.4-1l-0.8-2.1l-1,2l-1.1,2.2l-0.2,0l-1.2-2.9l-1-2.5l-0.8,2.5l-0.5,1.1
		l-0.6-2.2l-0.6-2.2l-1.2,2l-1.4,2.3l0,0.1l0,0.1l-0.3,0.7l-0.7-2.6l-0.7-2.6l-1.2,2.4l-1.4,3l-0.2,0.5l-0.8-3.2l-0.6-2.6l-1.2,2.4
		l-0.7,1.4l-0.5-0.7l-0.1-0.1l-0.1-0.1l-1.4-1.2l-0.3-0.2l-0.4,0l-1.4,0.1l-0.6,0l-0.2,0.5l-1.3,2.7l-0.4,0.3l-0.9-1.3l-0.9-1.4
		l-0.8,1.5l-0.8,1.5l-0.4-0.5l-1.4-1.9l-0.9-1.2l-0.8,1.2l-0.7,1l-0.6-0.8l-0.5-0.6l-0.7,0.3l-1.4,0.5l-0.2,0.1l-0.2,0.2l-1.1,1.2
		l-0.9-0.1l-0.3,0l-0.3,0.1l-0.4,0.2l-1.1-3.1l-0.8-2.2l-1.1,2l-1.2,2.4L469,505l-1.1-0.4l-0.5-0.2l-0.4,0.4l-0.9,0.8l-0.8-0.5
		l-0.9-0.6l-0.5,0.9l-0.6,1.2l-0.5-0.8l-0.7-1.1l-0.9,1l-0.5,0.5l-0.8-1.6l-0.7-1.5l-1,1.3l-0.4,0.6l-0.7-1.6l-0.6-1.3l-1,1
		l-1.4,1.5l-0.1,0.1l-0.1,0.2l-0.9,2.1l-0.4-0.3l-1.4-1.6l0,0l0,0l-1.4-1.4l-0.9-0.9l-0.6,1.1l-0.6,1.1l-0.6-0.8l-1.2-1.8l-0.6,2
		l-0.4,1.2l-0.6-2.4l-0.2-0.8l-0.9,0.1l-1.4,0.1l-0.6,0l-0.2,0.5l-1.4,3l-0.9,1.4l-0.6-0.4l-0.4-0.2l-0.4,0.2l-0.7,0.2l-1-1.7
		l-0.9-1.5l-0.8,1.5l-1,1.9l-0.6-0.2l-1.4-0.8l-0.6-0.4l-0.5,0.5l-0.4,0.4l-0.7-2.7l0-0.2l-0.1-0.1l-1.1-1.6l-0.1-0.2l-0.2-0.1
		l-1.1-0.8l-0.9-0.6l-0.5,1l-0.6,1.1l0.1-1.2l0.2-2.6l-1.9,1.7l-2,1.9l-0.2,0l0-1.9l0-1.4l-1.3,0.4l-1.9,0.6l-1-0.1l-0.7-0.8
		l-0.2-0.3l-0.4-0.1l-1.5-0.3l-0.8-0.7l-0.6-1.2l-0.1-0.2l-0.2-0.1l-0.4-0.3l2.1-2.6l0.5-0.6l-0.4-0.6l-0.7-1l-0.4-0.6l-0.7,0.1
		l-3.9,0.9l0.1-0.2l2.3-2.3l1.6-1.5l-2.2-0.2l-0.6,0l1.8-0.9l1.1-0.6l-0.8-1l-0.9-1.1l-0.2-0.3l-0.4-0.1l-3.9-0.8l0,0l3.5-1.3
		l0.5-0.2l0.1-0.5l0.4-1.5l0.1-0.4l-0.2-0.3l-0.9-1.5l0-0.1l-0.1-0.1l-1-1.1l0.3-0.9l0,0l0,0l0.3-1.4l0.1-0.5l-0.4-0.4l-1.1-1.2
		l0.4-0.7l0.4-0.7l-0.6-0.5l-1.5-1.4l0.5-0.3l3.4-0.1l2.1-0.1l-1.4-1.6l-0.9-1l1,0.1l1.6,0.1l-0.6-1.5l-0.2-0.6l1.5,0.3l0.2,0
		l0.2-0.1l1.5-0.5l1.2-0.4l-0.7-1.1l-0.9-1.4l1.1,0.7l1.7,1.1l-0.2-2l-0.2-1.9l0.7-0.6l1.1-0.8l0.4-0.3l0-0.5l0.1-1.7l0.8,0.2
		l0.8,0.2l0.3-0.8l0.7-1.7l0.7-0.4l1.1,0.6l2.2,4.1l1.6,3l0.3-3.4l0.2-2.9l0.2,0.4l0.9,1.6l0.9-1.6l1.3-2.5l0,0l1,4.5l0.7,3l1.2-2.9
		l1-2.3l0.4,0.3l0.3,0.2l0.4,0l1.4-0.2l0.6-0.1l0.2-0.5l0.3-0.6l0.7,2.9l0.5,2.2l1.3-1.9l0.7-1l0.6,0.8l0.7,0.9l0.8-0.8l1.3-1.4
		l0.7-0.4l0.9,0.7l0.2,0.2l0.3,0l1.4,0.1l0.4,0l0.3-0.3l0.9-0.9l0.8,0.4l0.6,0.3l0.5-0.4l0.7-0.6l0.7,0.8l1.4,2.1l1.3,2l0.5-2.4
		l0.7-3.5l0.2,0.6l0.2,0.6l0.6,0l1.4,0.1l0.1,0l0.1,0l1.1-0.1l1,0.6l1.4,1.4l1.2,1.3l0.5-1.7L466.7,450.4 M591,448.6l-1.4,5.8
		l-1.4-3.9l-1.4,3.7l-1.4-1l-1.4,0.8l-1.4,0.3l-1.4-1.2l-1.4-1.4l-1.4,2.9l-1.4-3.3l-1.4-0.5l-1.4,4.7l-1.4-4.6l-1.4,1.7l-1.4-2.6
		l-1.4,1.9l-1.4,2.2l-1.4-2.3l-1.4,0.7l-1.4,2.7l-1.4-4.1l-1.4,0.2l-1.4,0.1l-1.4-0.6l-1.4-0.2l-1.4,1.9l-1.4-0.2l-1.4,3.1l-1.4-1.5
		l-1.4-3.4l-1.4-0.5l-1.4,0.3l-1.4,2.5l-1.4,2.7l-1.4-4.3l-1.4-2.3l-1.4,5l-1.4-0.2l-1.4-1.8l-1.4,1l-1.4-1.5l-1.4-1.8l-1.4,4.3
		l-1.4-1.5l-1.4-2.8l-1.4,4.6l-1.4-2.5l-1.4,0.5l-1.4,0.5l-1.4,1.6l-1.4-3.7l-1.4,1.3l-1.4,0.5l-1.4,0.6l-1.4-3.6l-1.4,4.6l-1.4-5.3
		l-1.4,6.2l-1.4-0.5l-1.4-4.4l-1.4,2.5l-1.4-1.6l-1.4,0.7l-1.4-1.4l-1.4,5.1l-1.4-3.5l-1.4,0.8l-1.4-1l-1.4,1.9l-1.4-3.8l-1.4,0.5
		l-1.4,1.6l-1.4,0.4l-1.4-3.4l-1.4,6.6l-1.4-3.1l-1.4-2.5l-1.4-0.2l-1.4,1l-1.4,3.5l-1.4,0.8l-1.4-2.4l-1.4,1.2l-1.4-2.5l-1.4,2.1
		l-1.4-4.1l-1.4,0.2l-1.4,5.2l-1.4-1.5l-1.4-0.9l-1.4,0.2l-1.4-0.1l-1.4-3.6l-1.4,6.7l-1.4-2.2l-1.4-1.5l-1.4,1.2l-1.4-0.8l-1.4,1.4
		l-1.4-0.1l-1.4-1.1l-1.4,0.8l-1.4,1.5l-1.4-1.8l-1.4,2.1l-1.4-5.8l-1.4,3.4l-1.4,0.2l-1.4-1.1l-1.4,3.4l-1.4-6.1l-1.4,1.3l-1.4,2.6
		l-1.8-3.2l-0.5,6.1l-2.4-4.4l-1.9-1l-1.4,0.8l-0.9,2l-1.9-0.4l-0.1,2.9l-1.2,0.8l-1.1,0.9l0.2,2.4l-4.9-3.1l3.4,5.2l-1.5,0.5
		l-3.2-0.6l0.9,2.3l-3.4-0.2l2.4,2.8l-3.6,0.1l-1.9,1l2.6,2.3l-0.8,1.4l1.5,1.7l-0.3,1.4l-0.5,1.4l1.4,1.5l0.9,1.5l-0.4,1.5l-4,1.5
		l-0.4,1.6l5,1l0.9,1.1l-4.9,2.5l4.1,0.4l-2.4,2.3l-1.6,2.4l6.3-1.5l0.7,1l-2.8,3.5l1.3,0.9l0.7,1.4l1.1,1l1.7,0.3l1,1.1l1.6,0.2
		l2.1-0.7l0,2.8l1.5,0.2l2.4-2.2l-0.5,5.8l2.9-5.1l1.1,0.8l1.1,1.6l1.1,4.4l1.6-1.5l1.5,0.9l1.5,0.6l1.5-2.6l1.5,2.4l1.5-0.5
		l1.5,0.8l1.4-2.2l1.5-3l1.4-0.1l1.4,6l1.5-4.7l1.4,2.2l1.5-2.5l1.4,1.4l1.5,1.7l1.4,1.1l1.4-3.3l1.4-1.5l1.4,3.1l1.4-2l1.4,3
		l1.4-1.7l1.4,2.2l1.4-2.6l1.4,0.9l1.4-1.2l1.4,0.5l1.4-0.5l1.4-2.7l1.4,4.2l1.4-0.7l1.4,0.2l1.4-1.6l1.4-0.5l1.4,1.9l1.4-2.2l1.4,2
		l1.4,1.5l1.4-2.7l1.4,2.1l1.4-1l1.4-3l1.4-0.1l1.4,1.2l1.4,2l1.4-2.8l1.4,6l1.4-3l1.4-3l1.4,5.5l1.4-3.5l1.4-2.3l1.4,5.5l1.4-4.4
		l1.4,3.5l1.4,0.2l1.4-2.9l1.4,3.6l1.4-4.6l1.4,4.5l1.4-5l1.4,4.3l1.4,0.4l1.4-4.8l1.4,2.7l1.4-1.8l1.4,4.7l1.4-4.5l1.4,1.7l1.4,0.3
		l1.4,2.5l1.4-4.5l1.4,0.8l1.4-0.9l1.4,1.9l1.4-0.1l1.4,0.2l1.4-1.8l1.4-1.9l1.4,5l1.4-1.4l1.4-1.7l1.4-0.7l1.4,1.5l1.4,3.8l1.4-3.7
		l1.4-2.8l1.4,3.3l1.4,1.3l1.4,1.2l1.4-5.1l1.4,2.4l1.4,1.5l1.4,2l1.4-1.5l1.4-3l1.4,0.3l1.4-1.2l1.4,2.9l1.4-0.5l1.4-3l1.4,6.1
		l1.4-6.5l1.4,4.8l1.4-0.4l1.4-1.5l1.4-2.4l1.4,6l1.4-4.9l1.4,1.5l1.4,2.8l1.4-3l1.4-3.1l1.4,3.8l1.4,0.1l1.4-0.1l1.4-1.6l1.4-0.8
		l1.4,4.2l1.4-0.3l1.4-3.8l1.4,2.8l1.4,0.8l1.4,1.4l1.4-6.4l1.4,5.1l1.4-3.8l1.4-1.2l1.4,2.8l1.4-3l1.4,4.5l1.4,0.6l1.4-2.6l1.4,0.9
		l1.4,3.5l1.4-4.5l1.4,1.3l1.4-3.3l1.4,1.5l1.4,0.8l1.2-1.4l1.3-0.2l1-1.6l1.9,1.9l1.6,0.3l1.6,0.1l0.6-2.1l0.9-1.2l1.8,0.3l2.9,1.4
		l-2-4.6l1.6-0.2l0.9-1l1.1-0.9l4.3,1.3l-4.3-4.5l1.4-0.7l0-1.4l5.5,0.7l1.1-1.3l-2.6-2.3l-1.9-1.8l3.2-0.9l1.2-1.4L652,482l0.5-1.5
		l0.7-1.5l1.8-1.5l-0.9-1.5l-3.5-1.2l3.1-1.6l-1.1-1.3l0.1-1.5l-1.8-0.9l0.5-1.6l-2.2-0.5l2.4-2.7l-1.2-1l0.5-2.1l-0.3-1.7l-0.1-2
		l-2.8,0.4l-1.2-1l-2.6,0.9l1.6-4.7l-1.5-0.7l-1.2-1.2l-1.9,0.2l-1.6-0.2l-1.7,0.1l-1.9,1.5l-1.9,2.5l-0.8-3.9l-1.3-2.4l-1.6,5.7
		l-1.5-0.3l-1.5-4.8l-1.5,2.7l-1.5,1.5l-1.5-4.2l-1.5,5l-1.4,0l-1.5-1l-1.4-5.2l-1.4,3.3l-1.5,2l-1.4-4.9l-1.5,2l-1.4-1.8l-1.5,4.3
		l-1.4-0.3l-1.4,0.5l-1.4-4.1l-1.4,5.4l-1.4-3.1l-1.4,0.6l-1.4-1.6l-1.4,0.5l-1.4,0.6l-1.4,2.2l-1.4-4.2L591,448.6L591,448.6z"/>
</g>
<text transform="matrix(1 0 0 1 457.5498 488.2051)" class="st6 st8">Restart Level</text>
<text transform="matrix(1 0 0 1 307.2388 568.9482)" class="st6 st8">Resume Game</text>
</svg>
